<svg class="icon" viewBox="0 0 1024 1024" xmlns="http://www.w3.org/2000/svg" width="64" height="64"><defs><style/></defs><path d="M285.702 529.808l421.652 421.65c0-.072.005-.15.005-.224 3.871 4.555 9.634 7.45 16.082 7.45 11.663 0 21.117-9.454 21.117-21.118 0-6.648-3.079-12.572-7.88-16.443l.03-.02-394.004-394.004c-13.634-18.131.18-33.45.292-33.573l393.155-393.153-.192-.146c5.03-3.861 8.286-9.913 8.286-16.748 0-11.663-9.453-21.117-21.117-21.117-5.357 0-10.231 2.008-13.956 5.299v-.024l-.274.273a22.74 22.74 0 0 0-1.344 1.34L282.956 493.86l.108.142c-4.045 4.385-6.531 10.226-6.531 16.654 0 7.744 3.581 14.64 9.17 19.152zm0 0" fill="#fff"/></svg>