<?xml version="1.0" standalone="no"?><!DOCTYPE svg PUBLIC "-//W3C//DTD SVG 1.1//EN" "http://www.w3.org/Graphics/SVG/1.1/DTD/svg11.dtd"><svg t="1509071056255" class="icon" style="" viewBox="0 0 1024 1024" version="1.1" xmlns="http://www.w3.org/2000/svg" p-id="3310" xmlns:xlink="http://www.w3.org/1999/xlink" width="64" height="64"><defs><style type="text/css"></style></defs><path d="M285.702486 529.807574 707.353758 951.458847c0-0.072655 0.005117-0.151449 0.005117-0.225127 3.871167 4.555759 9.634428 7.449669 16.08228 7.449669 11.662621 0 21.116947-9.453303 21.116947-21.116947 0-6.64842-3.079128-12.57234-7.879458-16.443507l0.029676-0.020466-394.004609-394.003586c-13.633508-18.130939 0.180102-33.449833 0.292666-33.57263l393.154241-393.153218-0.191358-0.146333c5.030573-3.860934 8.28571-9.912767 8.28571-16.747429 0-11.663644-9.453303-21.116947-21.116947-21.116947-5.357008 0-10.231015 2.007727-13.95585 5.298679l0-0.023536-0.274246 0.272199c-0.464581 0.425695-0.914836 0.87595-1.343601 1.340531L282.955932 493.860874l0.10847 0.141216c-4.045129 4.384867-6.531763 10.225899-6.531763 16.654308C276.532639 518.399757 280.114211 525.296841 285.702486 529.807574L285.702486 529.807574zM285.702486 529.807574" p-id="3311" fill="#ffffff"></path></svg>